<svg xmlns="http://www.w3.org/2000/svg" xmlns:xlink="http://www.w3.org/1999/xlink" width="665.719" height="254.423" viewBox="0 0 499.289 190.817"><clipPath id="a"><path transform="matrix(1 0 0 -1 -69.208 724.77)" d="M0 0h612v792H0z"/></clipPath><g clip-path="url(#a)"><clipPath id="b"><path transform="matrix(.24585 0 0 -.24585 -17.16 250.459)" d="M81.153 253.187H2072.57v742.658H81.153z"/></clipPath><g clip-path="url(#b)"><clipPath id="c"><path transform="matrix(.24585 0 0 -.24585 -17.16 250.459)" d="M0 0h2160v1080H0z"/></clipPath><g clip-path="url(#c)"><path d="M-17.16-15.06h531.037V250.46H-17.16z" fill="#fff"/></g><path d="M-17.16-15.06h531.037V250.46H-17.16z" fill="#fff"/><path d="M181.743 161.01h4.425v.553h-4.425zm6.085 0h4.425v.553h-4.425zm6.085 0h4.425v.553h-4.425zm6.085 0h4.425v.553h-4.425zm6.084 0h4.426v.553h-4.426zm6.085 0h4.425v.553h-4.425zm6.085 0h4.425v.553h-4.425zm6.085 0h4.425v.553h-4.425zm6.085 0h4.425v.553h-4.425zm6.084 0h3.234v.553h-3.234zm-53.243 1.483-2.069-1.207 2.07-1.207a.277.277 0 1 1 .278.478l-1.66.968v-.478l1.66.968a.277.277 0 0 1-.279.478z"/><path d="M465.675 60.582v42.482h-10.621V60.582z" fill="#fbe5d6"/><path stroke-width=".762" stroke-miterlimit="8" fill="none" stroke="#ed7d31" d="M465.675 60.582v42.482h-10.621V60.582z"/><path d="M466.765 59.55v42.483h-10.62V59.55z" fill="#fbe5d6"/><path stroke-width=".762" stroke-miterlimit="8" fill="none" stroke="#ed7d31" d="M466.765 59.55v42.483h-10.62V59.55z"/><path d="M467.838 58.433v42.483h-10.621V58.433z" fill="#fbe5d6"/><path stroke-width=".762" stroke-miterlimit="8" fill="none" stroke="#ed7d31" d="M467.838 58.433v42.483h-10.621V58.433z"/><path d="M468.952 57.45v42.484H458.33V57.45z" fill="#fbe5d6"/><path stroke-width=".762" stroke-miterlimit="8" fill="none" stroke="#ed7d31" d="M468.952 57.45v42.484H458.33V57.45z"/><path d="M32.335 60.375v42.483h-10.62V60.375z" fill="#fbe5d6"/><path stroke-width=".762" stroke-miterlimit="8" fill="none" stroke="#ed7d31" d="M32.335 60.375v42.483h-10.62V60.375z"/><path d="M33.425 59.343v42.483h-10.62V59.343z" fill="#fbe5d6"/><path stroke-width=".762" stroke-miterlimit="8" fill="none" stroke="#ed7d31" d="M33.425 59.343v42.483h-10.62V59.343z"/><path d="M34.498 58.226v42.483H23.877V58.226z" fill="#fbe5d6"/><path stroke-width=".762" stroke-miterlimit="8" fill="none" stroke="#ed7d31" d="M34.498 58.226v42.483H23.877V58.226z"/><path d="M37.164 71.528h204.673v.737H37.164zm202.64-1.24 2.76 1.609-2.76 1.609a.369.369 0 0 1-.371-.637l2.213-1.29v.636l-2.213-1.29a.369.369 0 1 1 .372-.638z" fill="#c55a11"/><path stroke-width=".762" stroke-miterlimit="8" fill="none" stroke="#c55a11" d="M196.976 108.991V66.508M197.007 66.508a5.31 5.31 0 0 1 5.31-5.31M207.597 108.991V77.13M207.597 77.274a5.31 5.31 0 0 1 5.31-5.31M218.217 108.991V87.75M218.217 87.75a5.31 5.31 0 0 1 5.31-5.31M228.838 108.991v-10.62"/><path stroke-width=".5715" stroke-miterlimit="8" fill="none" stroke="#c55a11" d="M228.838 98.515a5.31 5.31 0 0 1 5.31-5.31"/><path stroke-width=".762" stroke-miterlimit="8" fill="none" stroke="#c55a11" d="M196.976 119.48v-10.62M196.976 119.472a5.302 5.302 0 0 1-5.302 5.302M207.597 130.101V108.86M218.217 140.722V108.86M228.838 151.343V108.86M207.597 130.101a5.31 5.31 0 0 1-5.31 5.31M218.217 140.722a5.31 5.31 0 0 1-5.31 5.31M228.838 151.343a5.31 5.31 0 0 1-5.31 5.31M181.045 135.261l21.241.07M181.045 146.02h31.862M181.045 156.642h42.483"/><path d="M180.496 119.684v42.483h-10.621v-42.483z" fill="#e2f0d9"/><path stroke-width="1.143" stroke-miterlimit="8" fill="none" stroke="#548235" d="M180.496 119.684v42.483h-10.621v-42.483z"/><path stroke-width=".762" stroke-miterlimit="8" fill="none" stroke="#c55a11" d="M299.715 108.991V66.508M299.662 66.524a5.326 5.326 0 0 0-5.326-5.326M289.111 108.991V77.13M289.111 77.29a5.326 5.326 0 0 0-5.326-5.326M278.507 108.991V87.75M278.507 87.707a5.267 5.267 0 0 0-5.267-5.267M268.063 108.991v-10.62M268.063 98.355a5.295 5.295 0 0 0-5.294-5.295M299.715 119.48v-10.62M299.715 119.438a5.267 5.267 0 0 0 5.268 5.267M289.111 130.101V108.86M278.507 140.722V108.86M268.063 151.343V108.86M289.111 130.08a5.29 5.29 0 0 0 5.29 5.29M278.507 140.722a5.31 5.31 0 0 0 5.31 5.31M268.063 151.327a5.295 5.295 0 0 0 5.295 5.295"/><path d="M294.362 135h20.443v.738h-20.443zm18.416-1.24 2.759 1.61-2.759 1.608a.369.369 0 1 1-.371-.637l2.212-1.29v.637l-2.212-1.29a.369.369 0 1 1 .371-.638zM283.785 145.638h31.02v.738h-31.02zm28.993-1.24 2.759 1.61-2.759 1.608a.369.369 0 1 1-.371-.637l2.212-1.29v.637l-2.212-1.291a.369.369 0 0 1 .371-.637zM273.24 156.253h41.565v.738H273.24zm39.538-1.24 2.759 1.609-2.759 1.61a.369.369 0 1 1-.371-.638l2.212-1.29v.636l-2.212-1.29a.369.369 0 1 1 .371-.637z" fill="#c55a11"/><path stroke-width=".762" stroke-miterlimit="8" fill="none" stroke="#548235" d="M175.163 113.718a5.326 5.326 0 0 0-5.326-5.325M90.166 108.393h79.671M84.858 113.672a5.31 5.31 0 0 1 5.31-5.31"/><path d="M175.532 118.44v-4.772h-.738v4.771zm-1.978-2.028 1.61 2.759 1.608-2.759a.369.369 0 1 0-.637-.371l-1.29 2.212h.637l-1.291-2.212a.369.369 0 0 0-.637.371z" fill="#548235"/><path stroke-width=".762" stroke-miterlimit="8" fill="none" stroke="#548235" d="M84.858 129.375v-15.768"/><path stroke-width="1.143" stroke-miterlimit="8" fill="none" stroke="#548235" d="M401.123 130.042v53.16h-10.62v-53.16z"/><path stroke-width=".762" stroke-miterlimit="8" fill="none" stroke="#c55a11" d="M181.045 124.792h10.62"/><path d="M304.915 124.336h9.89v.738h-9.89zm7.863-1.24 2.759 1.609-2.759 1.61a.369.369 0 1 1-.371-.638l2.212-1.29v.636l-2.212-1.29a.369.369 0 1 1 .371-.637zM253.669 92.667h204.898v.737H253.669zm202.872-1.24 2.759 1.609-2.76 1.609a.369.369 0 0 1-.37-.637l2.212-1.29v.636l-2.213-1.29a.369.369 0 0 1 .372-.638zM37.164 60.83h204.673v.737H37.164zm202.64-1.241 2.76 1.61-2.76 1.608a.369.369 0 0 1-.371-.637l2.213-1.29v.637l-2.213-1.291a.369.369 0 1 1 .372-.637zM253.669 60.83h204.898v.737H253.669zm202.872-1.241 2.759 1.61-2.76 1.608a.369.369 0 0 1-.37-.637l2.212-1.29v.637l-2.213-1.291a.369.369 0 0 1 .372-.637zM253.669 71.524h204.898v.737H253.669zm202.872-1.24 2.759 1.609-2.76 1.609a.369.369 0 0 1-.37-.637l2.212-1.29v.636l-2.213-1.29a.369.369 0 0 1 .372-.638zM253.669 82.095h204.898v.738H253.669zm202.872-1.24 2.759 1.61-2.76 1.608a.369.369 0 0 1-.37-.637l2.212-1.29v.637l-2.213-1.291a.369.369 0 0 1 .372-.637zM37.42 92.704h204.673v.738H37.419zm202.64-1.24 2.759 1.609-2.759 1.61a.369.369 0 1 1-.371-.638l2.212-1.29v.637L239.69 92.1a.369.369 0 1 1 .371-.637zM37.42 82.07h204.673v.738H37.419zm202.64-1.24 2.759 1.61-2.759 1.609a.369.369 0 1 1-.371-.637l2.212-1.291v.637l-2.212-1.29a.369.369 0 1 1 .371-.638z" fill="#c55a11"/><path stroke-width=".762" stroke-miterlimit="8" fill="none" stroke="#548235" d="M395.8 113.672a5.326 5.326 0 0 0-5.326-5.326M326.67 108.346h63.804M321.336 113.706a5.31 5.31 0 0 1 5.31-5.31M321.336 119.211v-5.501"/><path d="M396.19 128.747V113.71h-.738v15.038zm-1.978-2.027 1.609 2.76 1.61-2.76a.369.369 0 0 0-.638-.371l-1.29 2.212h.636l-1.29-2.212a.369.369 0 1 0-.637.371z" fill="#548235"/><path stroke-width="1.143" stroke-miterlimit="8" fill="none" stroke="#548235" d="M90.144 129.961v53.16h-10.62v-53.16z"/><path d="M90.221 129.937v10.59h-10.62v-10.59z" fill="#e2f0d9"/><path stroke-width="1.143" stroke-miterlimit="8" fill="none" stroke="#548235" d="M90.221 129.937v10.59h-10.62v-10.59zM390.157 140.552h10.62M390.157 151.238h10.62M390.157 161.757h10.62M390.157 172.434h10.62"/><path d="M35.612 57.244v42.483H24.99V57.244z" fill="#fbe5d6"/><path stroke-width=".762" stroke-miterlimit="8" fill="none" stroke="#ed7d31" d="M35.612 57.244v42.483H24.99V57.244z"/><path d="M36.999 55.97v42.483h-10.62V55.971z" fill="#fbe5d6"/><path stroke-width="1.143" stroke-miterlimit="8" fill="none" stroke="#ed7d31" d="M36.999 55.97v42.483h-10.62V55.971z"/><path d="M470.339 56.177V98.66h-10.621V56.177z" fill="#fbe5d6"/><path stroke-width="1.143" stroke-miterlimit="8" fill="none" stroke="#ed7d31" d="M470.339 56.177V98.66h-10.621V56.177z"/><path stroke-width=".762" stroke-dasharray="6.096,2.286" stroke-miterlimit="8" fill="none" stroke="#4472c4" d="m91.55 129.679 31.688 35.466M93.167 183.12h29.083"/><path stroke-width="1.143" stroke-miterlimit="8" fill="none" stroke="#2e75b6" d="M142.284 179.038h179.645"/><path d="M321.903 179.33v-15.468h-1.106v15.468zm1.86-12.427-2.413-4.138-2.414 4.138a.553.553 0 1 0 .956.557l1.936-3.319h-.956l1.936 3.32a.553.553 0 1 0 .956-.558z" fill="#2e75b6"/><path d="M326.66 119.684v42.483h-10.62v-42.483z" fill="#e2f0d9"/><path stroke-width="1.143" stroke-miterlimit="8" fill="none" stroke="#548235" d="M326.66 119.684v42.483h-10.62v-42.483z"/><path stroke-width="1.143" stroke-miterlimit="8" fill="none" stroke="#2e75b6" d="m142.363 174.567 106.549-.07M141.647 170.295h34.247"/><path d="M175.92 169.974v-6.112h-1.106v6.112zm1.861-3.071-2.413-4.138-2.414 4.138a.553.553 0 0 0 .955.557l1.936-3.319h-.955l1.936 3.32a.553.553 0 1 0 .955-.558z" fill="#2e75b6"/><path d="M124.299 165.463h17.664v17.713h-17.664z" fill="#deebf7"/><path stroke-width="1.143" stroke-miterlimit="8" fill="none" stroke="#4472c4" d="M124.299 165.463h17.664v17.713h-17.664z"/><symbol id="d"><path d="M.39.494C.39.418.37.36.331.32.293.28.238.26.166.26H.133V0H0v.714h.181C.32.714.39.64.39.494M.133.374h.025c.033 0 .057.009.073.027.016.018.024.047.024.088 0 .037-.007.065-.022.083C.218.59.196.599.165.599H.133V.374z"/></symbol><symbol id="e"><path d="M.232.554A.153.153 0 0 0 .279.547L.264.42a.108.108 0 0 1-.036.005.083.083 0 0 1-.073-.038A.192.192 0 0 1 .13.28V0H0v.544h.107L.122.459h.004c.014.034.03.059.047.073a.088.088 0 0 0 .059.022z"/></symbol><symbol id="f"><path d="M.422.283A.338.338 0 0 0 .365.074.185.185 0 0 0 .21 0 .185.185 0 0 0 .1.034a.217.217 0 0 0-.074.098.402.402 0 0 0-.026.15C0 .372.019.44.056.49c.038.05.09.075.156.075A.18.18 0 0 0 .365.488.333.333 0 0 0 .422.283m-.29 0c0-.057.007-.1.02-.129C.163.125.183.111.21.111c.052 0 .078.057.078.172C.29.34.283.383.27.41.258.438.238.453.21.453.185.453.165.438.152.41A.332.332 0 0 1 .133.283z"/></symbol><symbol id="g"><path d="M.068 0A.164.164 0 0 0 0 .012V.12A.116.116 0 0 1 .042.111c.03 0 .046.028.046.083v.59h.13V.177c0-.056-.013-.1-.04-.13A.136.136 0 0 0 .068 0m.015.926c0 .022.006.039.019.051a.07.07 0 0 0 .052.02.068.068 0 0 0 .051-.02.07.07 0 0 0 .019-.05.068.068 0 0 0-.02-.052.07.07 0 0 0-.05-.019.073.073 0 0 0-.051.019C.09.887.083.904.083.926z"/></symbol><symbol id="h"><path d="M.22 0a.197.197 0 0 0-.161.072A.32.32 0 0 0 0 .278c0 .09.018.16.053.21.036.05.085.076.149.076.059 0 .106-.022.14-.065A.284.284 0 0 0 .393.318v-.07H.132C.132.2.142.165.162.14A.095.095 0 0 1 .24.105c.042 0 .085.013.13.04V.038A.285.285 0 0 0 .22 0M.2.464C.183.464.168.454.156.434A.197.197 0 0 1 .134.343h.132c-.001.04-.007.07-.018.09C.236.453.22.463.2.463z"/></symbol><symbol id="i"><path d="M.199 0A.17.17 0 0 0 .05.07.355.355 0 0 0 0 .28c0 .096.016.167.048.214C.08.54.13.564.197.564A.248.248 0 0 0 .32.53L.283.429A.146.146 0 0 1 .21.453C.183.453.163.438.15.409A.352.352 0 0 1 .133.28C.133.224.139.182.15.154.163.126.183.112.21.112a.19.19 0 0 1 .102.034V.032A.211.211 0 0 0 .199 0z"/></symbol><symbol id="j"><path d="M.228.11a.15.15 0 0 1 .06.014V.022A.168.168 0 0 0 .191 0C.145 0 .11.014.087.042.064.07.053.112.053.169V.45H0v.058l.068.047L.1.67h.083V.554h.099V.45H.184V.165C.184.128.2.11.228.11z"/></symbol><use xlink:href="#d" transform="matrix(4.917 0 0 -4.917 126.772 176.055)"/><use xlink:href="#e" transform="matrix(4.917 0 0 -4.917 129.1 176.055)"/><use xlink:href="#f" transform="matrix(4.917 0 0 -4.917 130.664 176.103)"/><use xlink:href="#g" transform="matrix(4.917 0 0 -4.917 132.774 177.236)"/><use xlink:href="#h" transform="matrix(4.917 0 0 -4.917 134.294 176.103)"/><use xlink:href="#i" transform="matrix(4.917 0 0 -4.917 136.567 176.103)"/><use xlink:href="#j" transform="matrix(4.917 0 0 -4.917 138.284 176.103)"/><path d="M253.669 151.166v10.591h-10.62v-10.591z" fill="#e2f0d9"/><path stroke-width="1.143" stroke-miterlimit="8" fill="none" stroke="#548235" d="M253.669 151.166v10.591h-10.62v-10.591z"/><path d="M248.912 174.567v-11.305h-1.107v11.305zm1.86-8.264-2.413-4.138-2.414 4.138a.553.553 0 1 0 .955.557l1.936-3.319h-.955l1.936 3.32a.553.553 0 1 0 .956-.558z" fill="#2e75b6"/><path d="M248.54 99.833v4.426h-.553v-4.426zm0 6.085v4.425h-.553v-4.425zm0 6.085v4.425h-.553v-4.425zm0 6.085v4.425h-.553v-4.425zm0 6.085v4.425h-.553v-4.425zm0 6.084v4.426h-.553v-4.426zm0 6.085v4.425h-.553v-4.425zm0 6.085v4.425h-.553v-4.425zm0 6.085v1.586h-.553v-1.586zm-1.483-47.158 1.206-2.07 1.207 2.07a.277.277 0 1 1-.477.279l-.969-1.66h.478l-.968 1.66a.276.276 0 1 1-.477-.28z"/><symbol id="k"><path d="M.454.364a.436.436 0 0 0-.072-.27A.246.246 0 0 0 .175 0H0v.714h.19C.275.714.34.684.386.622a.42.42 0 0 0 .07-.258M.317.36C.318.52.274.6.186.6H.133V.115h.043c.048 0 .084.02.107.06A.38.38 0 0 1 .318.36z"/></symbol><symbol id="l"><path d="M.135 0h-.13v.544h.13V0M0 .686c0 .022.006.038.019.05.012.014.03.02.052.02a.069.069 0 0 0 .051-.02.068.068 0 0 0 .02-.05.068.068 0 0 0-.02-.052.071.071 0 0 0-.05-.018.073.073 0 0 0-.052.018.068.068 0 0 0-.02.052z"/></symbol><symbol id="m"><path d="M.317.169A.164.164 0 0 0 .271.044C.24.014.194 0 .133 0A.255.255 0 0 0 0 .032v.113A.254.254 0 0 1 .126.102c.02 0 .035.004.046.014.01.01.016.023.016.04a.063.063 0 0 1-.017.043.283.283 0 0 1-.06.046.255.255 0 0 0-.086.074A.172.172 0 0 0 0 .414c0 .046.016.082.047.11.032.026.076.04.131.04A.262.262 0 0 0 .314.526L.272.433A.199.199 0 0 1 .18.46C.164.46.151.457.143.448A.046.046 0 0 1 .13.416C.13.4.135.388.146.376A.277.277 0 0 1 .203.334.366.366 0 0 0 .274.282.156.156 0 0 0 .317.169z"/></symbol><symbol id="n"><path d="M.317 0H0v.083l.167.356H.011v.105h.3V.452L.147.105h.169V0z"/></symbol><use xlink:href="#k" transform="matrix(4.917 0 0 -4.917 222.096 166.32)"/><use xlink:href="#l" transform="matrix(4.917 0 0 -4.917 224.771 166.32)"/><use xlink:href="#m" transform="matrix(4.917 0 0 -4.917 225.87 166.367)"/><use xlink:href="#i" transform="matrix(4.917 0 0 -4.917 227.746 166.367)"/><use xlink:href="#e" transform="matrix(4.917 0 0 -4.917 229.65 166.32)"/><use xlink:href="#h" transform="matrix(4.917 0 0 -4.917 231.215 166.367)"/><use xlink:href="#j" transform="matrix(4.917 0 0 -4.917 233.39 166.367)"/><use xlink:href="#l" transform="matrix(4.917 0 0 -4.917 235.16 166.32)"/><use xlink:href="#n" transform="matrix(4.917 0 0 -4.917 236.21 166.32)"/><use xlink:href="#h" transform="matrix(4.917 0 0 -4.917 238.04 166.367)"/><path d="M401.107 130.093v10.592h-10.62v-10.592z" fill="#e2f0d9"/><path stroke-width="1.143" stroke-miterlimit="8" fill="none" stroke="#548235" d="M401.107 130.093v10.592h-10.62v-10.592z"/><symbol id="o"><path d="M.218.229a2.696 2.696 0 0 1-.031.14.202.202 0 0 1-.014.04.032.032 0 0 1-.011.013.027.027 0 0 1-.016.004.036.036 0 0 1-.018-.005A.065.065 0 0 1 .11.405.362.362 0 0 1 .084.37L.052.39c.02.032.04.055.06.07a.103.103 0 0 0 .066.023.09.09 0 0 0 .027-.004.056.056 0 0 0 .02-.01A.066.066 0 0 0 .241.45.368.368 0 0 0 .266.372a.966.966 0 0 0 .01-.059H.28l.07.096c.017.02.03.036.042.046.01.01.021.017.031.02a.11.11 0 0 0 .041.007.102.102 0 0 0 .038-.006L.483.388H.45C.447.4.442.408.432.408L.422.407A.049.049 0 0 1 .412.4.645.645 0 0 1 .325.303L.29.264A2.14 2.14 0 0 1 .332.087a.075.075 0 0 1 .01-.02A.039.039 0 0 1 .353.06.034.034 0 0 1 .366.057a.04.04 0 0 1 .026.01C.4.074.412.089.428.113l.031-.02A.303.303 0 0 0 .397.02.106.106 0 0 0 .332 0a.075.075 0 0 0-.036.008.066.066 0 0 0-.025.024.172.172 0 0 0-.019.051.782.782 0 0 0-.019.096H.23A2.584 2.584 0 0 0 .15.075.401.401 0 0 0 .11.028.097.097 0 0 0 .078.007.107.107 0 0 0 .038 0 .102.102 0 0 0 0 .006l.02.089h.034C.056.08.06.075.07.075c.004 0 .01 0 .014.003a.104.104 0 0 1 .022.017L.146.14l.072.09z"/></symbol><use xlink:href="#o" transform="matrix(8.8506 0 0 -8.8506 68.217 136.945)"/><symbol id="p"><path d="M.308.103a.54.54 0 0 0-.092-.08A.173.173 0 0 0 .131 0C.092 0 .063.01.044.027.025.046.016.072.016.107a.352.352 0 0 0 .01.083l.058.253H0L.01.48a.15.15 0 0 1 .045.006C.066.49.075.495.083.5c.005.005.01.01.014.017a.346.346 0 0 1 .027.058L.142.62h.076L.189.497h.166L.344.443H.178L.128.238a1.25 1.25 0 0 1-.016-.09v-.02c0-.02.004-.035.012-.046C.132.071.146.065.164.065c.016 0 .032.006.05.018.017.011.037.03.06.054L.308.103z"/></symbol><use xlink:href="#p" transform="matrix(6.3921 0 0 -6.3921 73.147 138.761)"/><symbol id="q"><path d="M.125.566a.397.397 0 0 1 .012.072c0 .014-.004.023-.012.029C.116.673.102.676.08.677l.006.025.123.004h.029L.154.368.16.366c.03.04.06.07.087.089a.149.149 0 0 0 .084.027C.36.482.384.474.4.456A.101.101 0 0 0 .424.384.39.39 0 0 0 .41.296L.379.168A.367.367 0 0 1 .366.093C.366.08.368.071.372.065.376.059.383.056.392.056c.01 0 .02.004.031.012A.36.36 0 0 1 .47.114L.498.086A.426.426 0 0 0 .421.02.125.125 0 0 0 .354 0a.063.063 0 0 0-.051.022.088.088 0 0 0-.019.059C.284.1.29.133.3.174l.021.084a1.09 1.09 0 0 1 .02.104C.34.385.336.402.328.41.322.42.31.425.292.425A.081.081 0 0 1 .248.41.398.398 0 0 1 .154.293.305.305 0 0 1 .129.219L.084.008H0l.125.558z"/></symbol><use xlink:href="#q" transform="matrix(11.8008 0 0 -11.8008 18.772 115.314)"/><symbol id="r"><path d="M.308.103a.54.54 0 0 0-.092-.08A.173.173 0 0 0 .131 0C.092 0 .063.01.044.027.025.046.016.072.016.107a.352.352 0 0 0 .01.083l.058.253H0L.01.48a.15.15 0 0 1 .045.006C.066.49.075.495.083.5c.005.005.01.01.014.017a.346.346 0 0 1 .027.058L.142.62h.076L.189.497h.166L.344.443H.178L.128.238a1.25 1.25 0 0 1-.016-.09v-.02c0-.02.004-.035.012-.046C.132.071.146.065.164.065c.016 0 .032.006.05.018.017.011.037.03.06.054L.308.103z"/></symbol><use xlink:href="#r" transform="matrix(8.60475 0 0 -8.60475 25.385 117.716)"/><symbol id="s"><path d="M0 0v.075h.563V0H0z"/></symbol><use xlink:href="#s" transform="matrix(8.60475 0 0 -8.60475 29.51 115.502)"/><symbol id="t"><path d="M.268.129A.31.31 0 0 1 .27.084.057.057 0 0 1 .277.071a.048.048 0 0 1 .01-.009.04.04 0 0 1 .015-.01.63.63 0 0 1 .112-.01V0H.027v.042A3.372 3.372 0 0 1 .11.048a.21.21 0 0 1 .022.005.07.07 0 0 1 .027.016.04.04 0 0 1 .008.013.166.166 0 0 1 .006.047v.35c0 .013-.002.022-.007.027C.161.51.154.514.145.514A.11.11 0 0 1 .1.498 1.019 1.019 0 0 1 .023.452.37.37 0 0 0 0 .497 33.407 33.407 0 0 1 .24.63h.03a3.583 3.583 0 0 1-.002-.09V.13z"/></symbol><use xlink:href="#t" transform="matrix(8.60475 0 0 -8.60475 35.837 117.64)"/><use xlink:href="#q" transform="matrix(11.8008 0 0 -11.8008 457.936 116.376)"/><use xlink:href="#r" transform="matrix(8.60475 0 0 -8.60475 464.548 118.779)"/><path stroke-width="1.143" stroke-miterlimit="8" fill="none" stroke="#548235" d="M79.523 140.552h10.62M79.523 151.238h10.62M79.523 161.757h10.62M79.523 172.434h10.62"/><symbol id="u"><path d="M.235.212a6.042 6.042 0 0 1-.072.366C.156.602.149.618.14.625a.024.024 0 0 1-.017.006.042.042 0 0 1-.03-.012.24.24 0 0 1-.033-.044l-.032.02a.27.27 0 0 0 .063.072.11.11 0 0 0 .1.015.074.074 0 0 0 .037-.038A.602.602 0 0 0 .255.55 4.312 4.312 0 0 0 .294.29a1.099 1.099 0 0 1 .128.247c.01.032.015.059.015.079C.438.63.435.64.428.646.422.652.411.655.395.656L.4.68h.128L.542.655A1.593 1.593 0 0 0 .44.438 2.262 2.262 0 0 0 .298.212 1.111 1.111 0 0 0 .169.058.249.249 0 0 0 .101.01.147.147 0 0 0 .02.002.082.082 0 0 0 0 .006l.021.095H.06C.06.081.067.07.08.07.1.07.121.082.147.105a.729.729 0 0 1 .088.107z"/></symbol><use xlink:href="#u" transform="matrix(11.8008 0 0 -11.8008 409.184 139.801)"/><use xlink:href="#r" transform="matrix(8.60475 0 0 -8.60475 415.99 139.784)"/><symbol id="v"><path d="m.376 0 .006.024C.4.026.415.033.425.046c.01.014.014.037.014.07 0 .013 0 .027-.002.042L.434.221H.22L.192.173A.393.393 0 0 1 .165.115a.125.125 0 0 1-.01-.042c0-.028.017-.044.05-.05L.2 0H0l.005.024a.06.06 0 0 1 .029.012c.009.006.018.017.028.03.01.014.025.036.043.067l.313.541h.074L.527.13A.295.295 0 0 1 .536.07.075.075 0 0 1 .553.036.059.059 0 0 1 .585.024L.58 0H.376M.241.264h.191L.424.42A3.295 3.295 0 0 0 .42.57H.415L.241.264z"/></symbol><use xlink:href="#v" transform="matrix(11.8008 0 0 -11.8008 245.36 48.96)"/><symbol id="w"><path d="M.516.657.486.525H.44C.437.565.429.594.414.61.399.63.375.638.342.638.297.638.256.616.217.571A.49.49 0 0 1 .125.393.705.705 0 0 1 .092.187C.092.139.1.102.118.079.136.055.163.043.2.043c.025 0 .046.004.064.01.018.008.036.02.051.038a.328.328 0 0 1 .048.073h.047L.379.025A.711.711 0 0 0 .187 0C.128 0 .08.018.047.053.017.088 0 .139 0 .207a.643.643 0 0 0 .098.33.336.336 0 0 0 .111.108c.043.025.09.037.14.037A.582.582 0 0 0 .517.657z"/></symbol><use xlink:href="#w" transform="matrix(11.8008 0 0 -11.8008 331.464 143.34)"/><use xlink:href="#r" transform="matrix(8.60475 0 0 -8.60475 337.63 145.743)"/><symbol id="x"><path d="M.417.341A.154.154 0 0 0 .487.29.124.124 0 0 0 .51.214C.51.17.5.134.48.103a.21.21 0 0 0-.09-.075A.42.42 0 0 0 .218 0H0l.005.024a.07.07 0 0 1 .028.01C.04.037.045.043.05.051A.17.17 0 0 1 .06.08a.95.95 0 0 1 .016.066L.16.52C.167.554.17.58.17.6.17.615.167.626.16.632.151.638.14.642.122.642l.005.025H.37A.359.359 0 0 0 .487.65.124.124 0 0 0 .552.606a.127.127 0 0 0 .02-.075A.172.172 0 0 0 .535.42.246.246 0 0 0 .417.347V.34M.282.368C.32.368.35.37.373.377a.149.149 0 0 1 .102.19A.069.069 0 0 1 .45.6a.107.107 0 0 1-.041.019.258.258 0 0 1-.062.006L.268.622.213.368h.069M.142.045.215.043c.05 0 .087.006.112.017A.15.15 0 0 1 .39.12a.196.196 0 0 1 .027.106C.418.258.408.283.385.3.364.316.332.325.29.325H.203l-.06-.28z"/></symbol><use xlink:href="#x" transform="matrix(11.8008 0 0 -11.8008 156.585 143.249)"/><use xlink:href="#r" transform="matrix(8.60475 0 0 -8.60475 164.079 145.743)"/><symbol id="y"><path d="M.355.207C.355.14.338.089.305.053.27.018.221 0 .158 0A.32.32 0 0 0 0 .037v.131A.275.275 0 0 1 .147.116c.025 0 .044.007.057.02a.08.08 0 0 1 .02.058A.103.103 0 0 1 .2.259a.337.337 0 0 1-.076.066.349.349 0 0 0-.07.06.23.23 0 0 0-.05.15c0 .06.018.11.052.145a.18.18 0 0 0 .137.054.3.3 0 0 0 .158-.046L.308.582a.409.409 0 0 1-.05.024.139.139 0 0 1-.054.01.06.06 0 0 1-.05-.02.089.089 0 0 1-.017-.058.1.1 0 0 1 .02-.063A.313.313 0 0 1 .23.414.299.299 0 0 0 .327.318.22.22 0 0 0 .355.207z"/></symbol><symbol id="z"><path d="M.22 0a.197.197 0 0 0-.161.072A.32.32 0 0 0 0 .278c0 .09.018.16.053.21.036.05.085.076.149.076.059 0 .106-.022.14-.065A.284.284 0 0 0 .393.318v-.07H.132C.132.2.142.165.162.14A.095.095 0 0 1 .24.105c.042 0 .085.013.13.04V.038A.285.285 0 0 0 .22 0M.2.464C.183.464.168.454.156.434A.197.197 0 0 1 .134.343h.132c-.001.04-.007.07-.018.09C.236.453.22.463.2.463z"/></symbol><symbol id="A"><path d="M.13 0H0v.76h.13V0z"/></symbol><symbol id="B"><path d="M.199 0A.17.17 0 0 0 .05.07.355.355 0 0 0 0 .28c0 .096.016.167.048.214C.08.54.13.564.197.564A.248.248 0 0 0 .32.53L.283.429A.146.146 0 0 1 .21.453C.183.453.163.438.15.409A.352.352 0 0 1 .133.28C.133.224.139.182.15.154.163.126.183.112.21.112a.19.19 0 0 1 .102.034V.032A.211.211 0 0 0 .199 0z"/></symbol><symbol id="C"><path d="M.228.11a.15.15 0 0 1 .06.014V.022A.168.168 0 0 0 .191 0C.145 0 .11.014.087.042.064.07.053.112.053.169V.45H0v.058l.068.047L.1.67h.083V.554h.099V.45H.184V.165C.184.128.2.11.228.11z"/></symbol><symbol id="D"><path d="M.135 0h-.13v.544h.13V0M0 .686c0 .022.006.038.019.05.012.014.03.02.052.02a.069.069 0 0 0 .051-.02.068.068 0 0 0 .02-.05.068.068 0 0 0-.02-.052.071.071 0 0 0-.05-.018.073.073 0 0 0-.052.018.068.068 0 0 0-.02.052z"/></symbol><symbol id="E"><path d="M.422.283A.338.338 0 0 0 .365.074.185.185 0 0 0 .21 0 .185.185 0 0 0 .1.034a.217.217 0 0 0-.074.098.402.402 0 0 0-.026.15C0 .372.019.44.056.49c.038.05.09.075.156.075A.18.18 0 0 0 .365.488.333.333 0 0 0 .422.283m-.29 0c0-.057.007-.1.02-.129C.163.125.183.111.21.111c.052 0 .078.057.078.172C.29.34.283.383.27.41.258.438.238.453.21.453.185.453.165.438.152.41A.332.332 0 0 1 .133.283z"/></symbol><symbol id="F"><path d="M.271 0v.324c0 .04-.005.07-.014.09-.01.02-.025.03-.046.03C.183.444.162.43.149.402a.36.36 0 0 1-.02-.14V0H0v.544h.103l.016-.07h.008a.136.136 0 0 0 .127.08c.05 0 .086-.017.11-.05A.25.25 0 0 0 .403.354V0H.27z"/></symbol><symbol id="G"><path d="M0 0z"/></symbol><symbol id="H"><path d="M.255 0 .119.608H.114A.992.992 0 0 0 .123.479V0H0v.714h.204L.326.153H.33l.121.56h.207V0H.532v.484c0 .04.003.08.007.123H.535L.4 0H.255z"/></symbol><symbol id="I"><path d="M.271 0v.324c0 .08-.02.12-.06.12C.18.444.16.428.148.396A.393.393 0 0 1 .13.261V0H0v.76h.13V.59C.13.57.128.53.124.475h.007c.026.054.066.08.12.08.05 0 .087-.017.113-.05A.243.243 0 0 0 .402.354V0H.27z"/></symbol><symbol id="J"><path d="M.295.01.269.084H.266a.184.184 0 0 0-.06-.066A.151.151 0 0 0 .13 0a.113.113 0 0 0-.095.045A.202.202 0 0 0 0 .17c0 .057.016.1.047.127a.224.224 0 0 0 .141.047L.26.347v.039c0 .05-.022.076-.066.076A.225.225 0 0 1 .082.424l-.045.09a.323.323 0 0 0 .176.05C.271.565.315.549.345.516A.2.2 0 0 0 .39.375V.01H.295M.182.102c.024 0 .043.01.057.031C.253.155.26.183.26.22v.046L.22.263C.19.26.17.253.155.237.14.222.135.2.135.17.134.124.15.102.181.102z"/></symbol><symbol id="K"><path d="M.317.169A.164.164 0 0 0 .271.044C.24.014.194 0 .133 0A.255.255 0 0 0 0 .032v.113A.254.254 0 0 1 .126.102c.02 0 .035.004.046.014.01.01.016.023.016.04a.063.063 0 0 1-.017.043.283.283 0 0 1-.06.046.255.255 0 0 0-.086.074A.172.172 0 0 0 0 .414c0 .046.016.082.047.11.032.026.076.04.131.04A.262.262 0 0 0 .314.526L.272.433A.199.199 0 0 1 .18.46C.164.46.151.457.143.448A.046.046 0 0 1 .13.416C.13.4.135.388.146.376A.277.277 0 0 1 .203.334.366.366 0 0 0 .274.282.156.156 0 0 0 .317.169z"/></symbol><symbol id="L"><path d="M.54 0v.324c0 .08-.02.12-.059.12C.452.444.431.43.419.4A.367.367 0 0 1 .401.264V0H.27v.324c0 .08-.02.12-.06.12C.182.444.162.43.149.4a.37.37 0 0 1-.02-.14V0H0v.544h.103l.016-.07h.008a.13.13 0 0 0 .053.06c.023.014.047.02.073.02A.13.13 0 0 0 .386.46H.39c.027.063.072.094.133.094.048 0 .085-.017.11-.05A.247.247 0 0 0 .67.354V0H.54z"/></symbol><use xlink:href="#y" transform="matrix(6.8838 0 0 -6.8838 156.72 186.802)" fill="#4472c4"/><use xlink:href="#z" transform="matrix(6.8838 0 0 -6.8838 159.599 186.802)" fill="#4472c4"/><use xlink:href="#A" transform="matrix(6.8838 0 0 -6.8838 162.898 186.734)" fill="#4472c4"/><use xlink:href="#z" transform="matrix(6.8838 0 0 -6.8838 164.392 186.802)" fill="#4472c4"/><use xlink:href="#B" transform="matrix(6.8838 0 0 -6.8838 167.56 186.802)" fill="#4472c4"/><use xlink:href="#C" transform="matrix(6.8838 0 0 -6.8838 169.97 186.802)" fill="#4472c4"/><use xlink:href="#D" transform="matrix(6.8838 0 0 -6.8838 172.455 186.734)" fill="#4472c4"/><use xlink:href="#E" transform="matrix(6.8838 0 0 -6.8838 174.015 186.802)" fill="#4472c4"/><use xlink:href="#F" transform="matrix(6.8838 0 0 -6.8838 177.555 186.734)" fill="#4472c4"/><use xlink:href="#G" transform="matrix(6.8838 0 0 -6.8838 180.68 186.734)" fill="#4472c4"/><use xlink:href="#H" transform="matrix(6.8838 0 0 -6.8838 182.801 186.734)" fill="#4472c4"/><use xlink:href="#z" transform="matrix(6.8838 0 0 -6.8838 188.022 186.802)" fill="#4472c4"/><use xlink:href="#B" transform="matrix(6.8838 0 0 -6.8838 191.19 186.802)" fill="#4472c4"/><use xlink:href="#I" transform="matrix(6.8838 0 0 -6.8838 193.87 186.734)" fill="#4472c4"/><use xlink:href="#J" transform="matrix(6.8838 0 0 -6.8838 197.18 186.802)" fill="#4472c4"/><use xlink:href="#F" transform="matrix(6.8838 0 0 -6.8838 200.604 186.734)" fill="#4472c4"/><use xlink:href="#D" transform="matrix(6.8838 0 0 -6.8838 204.08 186.734)" fill="#4472c4"/><use xlink:href="#K" transform="matrix(6.8838 0 0 -6.8838 205.595 186.802)" fill="#4472c4"/><use xlink:href="#L" transform="matrix(6.8838 0 0 -6.8838 208.353 186.734)" fill="#4472c4"/><path d="m436.66 185.736 26.54-45.756 26.538 45.756z" fill="#548235" fill-rule="evenodd"/><path stroke-width=".762" stroke-miterlimit="8" fill="none" stroke="#000" d="m436.661 185.736 26.538-45.756 26.539 45.756z"/><path d="m446.194 169.623 17.169-29.601 17.168 29.601z" fill="#ed7d31" fill-rule="evenodd"/><path stroke-width=".762" stroke-miterlimit="8" fill="none" stroke="#000" d="m446.194 169.623 17.169-29.601 17.168 29.601z"/><symbol id="M"><path d="M.238.406h.218V.04A.498.498 0 0 0 .26 0a.221.221 0 0 0-.192.095A.47.47 0 0 0 0 .368c0 .114.026.204.077.269a.26.26 0 0 0 .215.097A.326.326 0 0 0 .455.69L.413.582A.228.228 0 0 1 .3.617.137.137 0 0 1 .18.549.334.334 0 0 1 .136.365c0-.08.01-.142.031-.184C.19.138.22.117.261.117a.27.27 0 0 1 .065.008v.164H.238v.117z"/></symbol><symbol id="N"><path d="M.39.494C.39.418.37.36.331.32.293.28.238.26.166.26H.133V0H0v.714h.181C.32.714.39.64.39.494M.133.374h.025c.033 0 .057.009.073.027.016.018.024.047.024.088 0 .037-.007.065-.022.083C.218.59.196.599.165.599H.133V.374z"/></symbol><symbol id="O"><path d="M.442.724V.262c0-.085-.02-.15-.058-.195C.346.022.29 0 .218 0 .147 0 .093.022.056.066.019.111 0 .176 0 .264v.46h.132v-.47c0-.09.03-.136.09-.136.028 0 .05.011.065.034A.178.178 0 0 1 .31.251v.473h.132z"/></symbol><symbol id="P"><path d="M0 0z"/></symbol><use xlink:href="#M" transform="matrix(5.9004 0 0 -5.9004 458.594 159.532)" fill="#fff"/><use xlink:href="#N" transform="matrix(5.9004 0 0 -5.9004 461.92 159.475)" fill="#fff"/><use xlink:href="#O" transform="matrix(5.9004 0 0 -5.9004 464.733 159.532)" fill="#fff"/><use xlink:href="#P" transform="matrix(5.9004 0 0 -5.9004 467.7 159.475)" fill="#fff"/><symbol id="Q"><path d="M.355.207C.355.14.338.089.305.053.27.018.221 0 .158 0A.32.32 0 0 0 0 .037v.131A.275.275 0 0 1 .147.116c.025 0 .044.007.057.02a.08.08 0 0 1 .02.058A.103.103 0 0 1 .2.259a.337.337 0 0 1-.076.066.349.349 0 0 0-.07.06.23.23 0 0 0-.05.15c0 .06.018.11.052.145a.18.18 0 0 0 .137.054.3.3 0 0 0 .158-.046L.308.582a.409.409 0 0 1-.05.024.139.139 0 0 1-.054.01.06.06 0 0 1-.05-.02.089.089 0 0 1-.017-.058.1.1 0 0 1 .02-.063A.313.313 0 0 1 .23.414.299.299 0 0 0 .327.318.22.22 0 0 0 .355.207z"/></symbol><symbol id="R"><path d="M.133.278V0H0v.714h.174C.247.714.302.696.336.662.372.627.39.574.39.502.39.412.36.349.298.313L.435 0H.293L.18.278H.133m0 .114h.034c.031 0 .054.009.067.026a.13.13 0 0 1 .02.08C.255.535.249.56.234.576.219.59.196.599.166.599H.133V.392z"/></symbol><symbol id="S"><path d="M.4 0 .36.18H.174L.133 0H0l.177.717h.18L.534 0H.401M.335.298.297.464a4.738 4.738 0 0 0-.03.157A2.373 2.373 0 0 0 .251.528a9.968 9.968 0 0 0-.05-.23h.134z"/></symbol><symbol id="T"><path d="M.255 0 .119.608H.114A.992.992 0 0 0 .123.479V0H0v.714h.204L.326.153H.33l.121.56h.207V0H.532v.484c0 .04.003.08.007.123H.535L.4 0H.255z"/></symbol><use xlink:href="#Q" transform="matrix(5.9004 0 0 -5.9004 456.628 166.436)" fill="#fff"/><use xlink:href="#R" transform="matrix(5.9004 0 0 -5.9004 459.232 166.378)" fill="#fff"/><use xlink:href="#S" transform="matrix(5.9004 0 0 -5.9004 461.81 166.378)" fill="#fff"/><use xlink:href="#T" transform="matrix(5.9004 0 0 -5.9004 465.347 166.378)" fill="#fff"/><symbol id="U"><path d="M.44 0H.309v.313H.133V0H0v.714h.133V.43h.175v.284h.133V0z"/></symbol><symbol id="V"><path d="M0 .714h.182C.256.714.31.699.344.67.378.642.395.596.395.533A.19.19 0 0 0 .368.43.109.109 0 0 0 .295.38V.374c.04-.01.07-.029.087-.057A.2.2 0 0 0 .41.207.213.213 0 0 0 .357.055.186.186 0 0 0 .215 0H0v.714M.125.427h.061c.028 0 .048.007.06.022a.11.11 0 0 1 .016.067c0 .03-.006.05-.02.064C.23.593.21.6.183.6H.124V.426m0-.111v-.2h.067C.22.116.24.125.253.142c.014.017.02.043.02.078C.274.284.247.316.19.316H.125z"/></symbol><use xlink:href="#M" transform="matrix(5.9004 0 0 -5.9004 452.938 181.01)" fill="#fff"/><use xlink:href="#N" transform="matrix(5.9004 0 0 -5.9004 456.264 180.952)" fill="#fff"/><use xlink:href="#O" transform="matrix(5.9004 0 0 -5.9004 459.077 181.01)" fill="#fff"/><use xlink:href="#P" transform="matrix(5.9004 0 0 -5.9004 462.043 180.952)" fill="#fff"/><use xlink:href="#U" transform="matrix(5.9004 0 0 -5.9004 463.858 180.952)" fill="#fff"/><use xlink:href="#V" transform="matrix(5.9004 0 0 -5.9004 467.208 180.952)" fill="#fff"/><use xlink:href="#T" transform="matrix(5.9004 0 0 -5.9004 470.186 180.952)" fill="#fff"/><symbol id="W"><path d="M0 0v.031l.255.643h.073L.534.031V0H0m.086.078h.34L.272.566.086.078z"/></symbol><use xlink:href="#W" transform="matrix(11.8008 0 0 -11.8008 256.422 161.54)"/><use xlink:href="#r" transform="matrix(8.60475 0 0 -8.60475 263.762 164.035)"/><symbol id="X"><path d="M.465.208a.184.184 0 0 0-.07-.152A.301.301 0 0 0 .203 0 .455.455 0 0 0 0 .043v.14A.838.838 0 0 1 .122.139.365.365 0 0 1 .214.125c.033 0 .058.006.076.019.018.013.027.032.027.057a.061.061 0 0 1-.012.037.128.128 0 0 1-.034.032.856.856 0 0 1-.093.048.439.439 0 0 0-.098.059.222.222 0 0 0-.052.066.188.188 0 0 0-.02.088c0 .063.022.113.064.149A.268.268 0 0 0 .25.734.416.416 0 0 0 .356.72.726.726 0 0 0 .462.684L.413.566a.708.708 0 0 1-.095.033.301.301 0 0 1-.073.009C.216.608.195.6.18.588A.066.066 0 0 1 .156.536C.156.522.16.51.166.5A.107.107 0 0 1 .195.472C.208.462.24.446.29.422A.38.38 0 0 0 .428.326.186.186 0 0 0 .465.208z"/></symbol><symbol id="Y"><path d="M.26.46A.094.094 0 0 1 .184.43a.138.138 0 0 1-.03-.085h.208C.363.382.353.41.334.43A.097.097 0 0 1 .26.46M.28 0a.282.282 0 0 0-.206.073C.024.12 0 .19 0 .279 0 .37.023.44.068.49c.046.05.11.075.19.075A.24.24 0 0 0 .438.5.25.25 0 0 0 .503.318V.246H.15a.143.143 0 0 1 .037-.1.132.132 0 0 1 .1-.035.41.41 0 0 1 .184.043V.039A.342.342 0 0 0 .39.009.514.514 0 0 0 .28 0z"/></symbol><symbol id="Z"><path d="M.149 0H0v.76h.149V0z"/></symbol><symbol id="aa"><path d="M.255 0C.085 0 0 .093 0 .28c0 .093.023.163.07.212.046.05.112.074.198.074.063 0 .12-.012.17-.037L.394.414a.695.695 0 0 1-.065.023.206.206 0 0 1-.06.009C.19.446.151.39.151.28.152.174.19.12.268.12a.27.27 0 0 1 .08.01C.372.14.396.152.42.169V.041A.24.24 0 0 0 .348.009.407.407 0 0 0 .255 0z"/></symbol><symbol id="ab"><path d="M.285.119c.026 0 .057.005.094.017V.025A.334.334 0 0 0 .242 0C.182 0 .14.015.112.045.085.075.072.12.072.18v.263H0v.063l.082.05.043.115H.22V.556h.153V.444H.22V.18C.22.16.226.144.238.134A.071.071 0 0 1 .285.119z"/></symbol><symbol id="ac"><path d="M0 .687C0 .736.027.76.081.76.135.76.162.736.162.687a.071.071 0 0 0-.02-.054C.128.62.108.613.082.613.026.614 0 .639 0 .688M.155 0H.006v.546h.15V0z"/></symbol><symbol id="ad"><path d="M.208 0 0 .546h.156L.26.235A.555.555 0 0 0 .283.123h.003a.486.486 0 0 0 .022.112l.105.31H.57L.36 0H.208z"/></symbol><symbol id="ae"><path d="M0 0z"/></symbol><symbol id="af"><path d="M.383.01.354.084H.35A.222.222 0 0 0 .272.018.251.251 0 0 0 .17 0a.169.169 0 0 0-.124.045C.015.075 0 .118 0 .173 0 .23.02.273.06.3c.041.027.102.043.184.046L.34.35v.024C.339.429.31.457.254.457A.387.387 0 0 1 .1.417l-.05.1c.064.033.133.05.21.05A.26.26 0 0 0 .428.519C.468.487.487.439.487.374V.01H.383M.339.263.28.26A.185.185 0 0 1 .185.237C.163.223.153.201.153.172.153.13.177.109.225.109c.035 0 .062.01.083.03.02.02.03.046.03.079v.045z"/></symbol><symbol id="ag"><path d="M.3.23A.181.181 0 0 0 .149.3H.14L.15.221V0H0v.786h.121l.021-.07H.15a.172.172 0 0 0 .155.08.177.177 0 0 0 .151-.074A.346.346 0 0 0 .51.514.406.406 0 0 0 .484.362.212.212 0 0 0 .41.264.187.187 0 0 0 .3.23M.256.677C.219.677.192.666.176.643.157.621.15.583.148.531V.515c0-.058.009-.1.026-.126C.192.364.22.351.258.351c.067 0 .1.055.1.165a.232.232 0 0 1-.025.12C.317.665.291.678.256.678z"/></symbol><symbol id="ah"><path d="M.302 0 .13.56H.126C.132.446.136.37.136.332V0H0v.714h.206L.375.168h.003l.18.546h.205V0h-.14v.338a3.58 3.58 0 0 0 .006.221H.625L.441 0H.302z"/></symbol><symbol id="ai"><path d="M.152.284A.23.23 0 0 1 .178.16C.196.133.225.12.265.12c.04 0 .068.013.086.04a.232.232 0 0 1 .026.124.225.225 0 0 1-.026.121C.333.432.304.445.264.445.224.446.196.433.178.406A.224.224 0 0 1 .152.284m.377 0A.293.293 0 0 0 .46.075.255.255 0 0 0 .263 0a.275.275 0 0 0-.138.034.23.23 0 0 0-.093.1.332.332 0 0 0-.032.15c0 .089.023.158.07.208.046.05.112.074.196.074A.275.275 0 0 0 .405.532.228.228 0 0 0 .497.434.33.33 0 0 0 .53.284z"/></symbol><symbol id="aj"><path d="M.206 0a.178.178 0 0 0-.151.075A.345.345 0 0 0 0 .282C0 .372.019.44.056.49.093.54.145.566.21.566a.178.178 0 0 0 .157-.08h.005a.609.609 0 0 0-.011.109V.77h.15V.01H.395L.367.08H.361A.17.17 0 0 0 .206 0m.052.119c.038 0 .066.01.084.033.018.022.027.06.03.113V.28c0 .058-.01.1-.028.126C.326.432.297.445.256.445A.088.088 0 0 1 .178.402.226.226 0 0 1 .151.28C.15.226.16.186.179.159a.091.091 0 0 1 .08-.04z"/></symbol><use xlink:href="#X" transform="matrix(11.8008 0 0 -11.8008 167.365 16.505)"/><use xlink:href="#Y" transform="matrix(11.8008 0 0 -11.8008 173.868 16.505)"/><use xlink:href="#Z" transform="matrix(11.8008 0 0 -11.8008 181.236 16.39)"/><use xlink:href="#Y" transform="matrix(11.8008 0 0 -11.8008 184.444 16.505)"/><use xlink:href="#aa" transform="matrix(11.8008 0 0 -11.8008 191.42 16.505)"/><use xlink:href="#ab" transform="matrix(11.8008 0 0 -11.8008 197.215 16.505)"/><use xlink:href="#ac" transform="matrix(11.8008 0 0 -11.8008 202.926 16.39)"/><use xlink:href="#ad" transform="matrix(11.8008 0 0 -11.8008 205.68 16.39)"/><use xlink:href="#Y" transform="matrix(11.8008 0 0 -11.8008 212.914 16.505)"/><use xlink:href="#ae" transform="matrix(11.8008 0 0 -11.8008 219.359 16.39)"/><use xlink:href="#X" transform="matrix(11.8008 0 0 -11.8008 222.97 16.505)"/><use xlink:href="#ab" transform="matrix(11.8008 0 0 -11.8008 229.214 16.505)"/><use xlink:href="#af" transform="matrix(11.8008 0 0 -11.8008 234.574 16.505)"/><use xlink:href="#ab" transform="matrix(11.8008 0 0 -11.8008 241.478 16.505)"/><use xlink:href="#Y" transform="matrix(11.8008 0 0 -11.8008 246.872 16.505)"/><use xlink:href="#ae" transform="matrix(11.8008 0 0 -11.8008 253.317 16.39)"/><use xlink:href="#X" transform="matrix(11.8008 0 0 -11.8008 256.928 16.505)"/><use xlink:href="#ag" transform="matrix(11.8008 0 0 -11.8008 263.823 19.225)"/><use xlink:href="#af" transform="matrix(11.8008 0 0 -11.8008 270.868 16.505)"/><use xlink:href="#aa" transform="matrix(11.8008 0 0 -11.8008 278.032 16.505)"/><use xlink:href="#Y" transform="matrix(11.8008 0 0 -11.8008 284.087 16.505)"/><use xlink:href="#ae" transform="matrix(11.8008 0 0 -11.8008 290.532 16.39)"/><use xlink:href="#ah" transform="matrix(11.8008 0 0 -11.8008 294.662 16.39)"/><use xlink:href="#ai" transform="matrix(11.8008 0 0 -11.8008 305.26 16.505)"/><use xlink:href="#aj" transform="matrix(11.8008 0 0 -11.8008 312.578 16.505)"/><use xlink:href="#Y" transform="matrix(11.8008 0 0 -11.8008 320.05 16.505)"/><use xlink:href="#Z" transform="matrix(11.8008 0 0 -11.8008 327.417 16.39)"/><symbol id="ak"><path d="m.353 0-.01.306V.34l.002.098A36.572 36.572 0 0 0 .15 0H.023L0 .54h.108L.114.225C.114.196.112.156.11.105h.003C.133.162.15.207.165.238L.301.54h.124l.01-.295V.22L.433.105h.003a3.406 3.406 0 0 0 .059.157L.618.54h.119L.484 0H.353z"/></symbol><symbol id="al"><path d="M.138.673c0 .022.007.04.02.054a.07.07 0 0 0 .053.02.064.064 0 0 0 .042-.013C.263.725.269.712.269.694A.075.075 0 0 0 .249.64.068.068 0 0 0 .2.62a.07.07 0 0 0-.044.013C.144.64.138.655.138.673M.115 0H0l.115.54H.23L.115 0z"/></symbol><symbol id="am"><path d="M.177.093C.2.093.224.098.251.108V.02A.276.276 0 0 0 .146 0C.056 0 .012.04.012.12c0 .02.003.04.008.065l.06.278H0l.01.054.093.04.063.113h.071L.212.55h.136L.33.463H.194l-.06-.28A.202.202 0 0 1 .128.14C.128.125.132.113.14.105.148.097.16.093.177.093z"/></symbol><use xlink:href="#ak" transform="matrix(8.8506 0 0 -8.8506 171.767 28.309)"/><use xlink:href="#al" transform="matrix(8.8506 0 0 -8.8506 178.116 28.309)"/><use xlink:href="#am" transform="matrix(8.8506 0 0 -8.8506 180.74 28.395)"/><symbol id="an"><path d="m.32 0 .07.328A.37.37 0 0 1 .397.39c0 .044-.021.066-.063.066-.036 0-.07-.02-.103-.061A.404.404 0 0 1 .163.228L.115 0H0l.161.76h.115L.248.632A2.598 2.598 0 0 0 .212.489L.203.452h.004a.29.29 0 0 0 .082.075.177.177 0 0 0 .087.023C.42.55.454.537.478.512.5.487.513.45.513.404A.377.377 0 0 0 .502.319L.434 0H.32z"/></symbol><use xlink:href="#an" transform="matrix(8.8506 0 0 -8.8506 183.801 28.309)"/><symbol id="ao"><path d="M.508 0H.392L.46.322H.184L.116 0H0l.15.714h.117L.205.422H.48l.062.292h.116L.508 0z"/></symbol><symbol id="ap"><path d="M.149 0A.133.133 0 0 0 .04.05.217.217 0 0 0 0 .188c0 .066.011.127.034.185a.333.333 0 0 0 .093.135c.04.034.084.05.131.05A.145.145 0 0 0 .34.538.144.144 0 0 0 .393.473h.005l.03.077h.088L.401.01H.312l.01.086H.32C.268.032.211 0 .15 0M.19.093C.218.093.244.105.27.13c.025.026.046.06.063.102A.376.376 0 0 1 .358.37a.1.1 0 0 1-.023.068.076.076 0 0 1-.06.027.108.108 0 0 1-.078-.038.267.267 0 0 1-.059-.102.412.412 0 0 1-.022-.134c0-.033.007-.058.02-.075A.067.067 0 0 1 .19.093z"/></symbol><symbol id="aq"><path d="M.366.55A.21.21 0 0 0 .42.544L.394.437a.199.199 0 0 1-.05.007.143.143 0 0 1-.11-.055.314.314 0 0 1-.067-.145L.115 0H0l.115.54h.09l-.01-.1h.004C.226.479.253.507.28.524A.157.157 0 0 0 .366.55z"/></symbol><symbol id="ar"><path d="M.258.56C.317.56.36.53.39.473h.004a.91.91 0 0 0 .018.122L.448.77h.114L.401.01H.31l.01.086H.316A.303.303 0 0 0 .234.022.174.174 0 0 0 .149 0a.132.132 0 0 0-.11.05A.221.221 0 0 0 0 .19a.5.5 0 0 0 .035.187.329.329 0 0 0 .093.135.2.2 0 0 0 .13.048M.193.093c.027 0 .053.013.079.04a.284.284 0 0 1 .063.104.372.372 0 0 1 .024.13.11.11 0 0 1-.022.072C.323.457.302.466.273.466A.107.107 0 0 1 .195.428.266.266 0 0 1 .138.325.425.425 0 0 1 .116.192c0-.066.026-.1.077-.1z"/></symbol><symbol id="as"><path d="M.278.472A.124.124 0 0 1 .19.43.243.243 0 0 1 .13.319h.015c.061 0 .11.008.144.026C.323.362.34.387.34.419c0 .017-.005.03-.015.039C.315.467.299.472.278.472M.204 0a.203.203 0 0 0-.15.054A.206.206 0 0 0 0 .206a.43.43 0 0 0 .038.18C.063.44.098.483.14.513.183.544.232.56.285.56A.187.187 0 0 0 .407.524a.12.12 0 0 0 .044-.1.156.156 0 0 0-.081-.14.445.445 0 0 0-.232-.05h-.02L.115.22V.206C.116.169.126.14.144.12.162.1.19.09.226.09.25.09.273.093.296.1c.023.005.05.016.082.03V.04A.379.379 0 0 0 .204 0z"/></symbol><use xlink:href="#ao" transform="matrix(8.8506 0 0 -8.8506 191.43 28.309)"/><use xlink:href="#ap" transform="matrix(8.8506 0 0 -8.8506 197.618 28.395)"/><use xlink:href="#aq" transform="matrix(8.8506 0 0 -8.8506 202.544 28.309)"/><use xlink:href="#ar" transform="matrix(8.8506 0 0 -8.8506 206.371 28.395)"/><use xlink:href="#ak" transform="matrix(8.8506 0 0 -8.8506 211.652 28.309)"/><use xlink:href="#ap" transform="matrix(8.8506 0 0 -8.8506 218.205 28.395)"/><use xlink:href="#aq" transform="matrix(8.8506 0 0 -8.8506 223.13 28.309)"/><use xlink:href="#as" transform="matrix(8.8506 0 0 -8.8506 226.958 28.395)"/><symbol id="at"><path d="m0 0 .022.1h.245L.245 0H0z"/></symbol><use xlink:href="#at" transform="matrix(8.8506 0 0 -8.8506 231.404 26.381)"/><symbol id="au"><path d="M0 0z"/></symbol><symbol id="av"><path d="M.435.219a.196.196 0 0 0-.07-.16A.296.296 0 0 0 .17 0 .353.353 0 0 0 0 .037v.109A.346.346 0 0 1 .17.099c.045 0 .08.01.106.028.026.02.039.046.039.08a.095.095 0 0 1-.02.06.341.341 0 0 1-.084.066.382.382 0 0 0-.076.06.202.202 0 0 0-.037.058.192.192 0 0 0-.013.071A.2.2 0 0 0 .2.708a.284.284 0 0 0 .124.026A.396.396 0 0 0 .51.689L.468.596a.334.334 0 0 1-.144.038.123.123 0 0 1-.086-.029.094.094 0 0 1-.032-.074c0-.016.002-.029.007-.04A.103.103 0 0 1 .236.457.514.514 0 0 1 .302.412.334.334 0 0 0 .406.32a.18.18 0 0 0 .03-.101z"/></symbol><symbol id="aw"><path d="M.379 0H0l.15.714h.38l-.021-.1H.246L.205.42H.45L.43.32H.184L.137.1H.4L.379 0z"/></symbol><symbol id="ax"><path d="M.28.189.133 0H0l.232.278L.119.54h.12l.07-.182.14.182h.134L.358.272.479 0h-.12L.28.189z"/></symbol><symbol id="ay"><path d="M.31.23C.25.23.205.26.177.316H.173A.703.703 0 0 0 .16.226L.114 0H0l.165.78h.09L.245.688h.004C.3.756.356.79.417.79a.131.131 0 0 0 .11-.05A.22.22 0 0 0 .565.6.505.505 0 0 0 .532.414.323.323 0 0 0 .438.279.199.199 0 0 0 .31.23m.065.466C.348.696.321.683.295.657A.29.29 0 0 1 .231.555.368.368 0 0 1 .207.422.11.11 0 0 1 .229.35.082.082 0 0 1 .294.323c.028 0 .053.013.078.038.024.026.043.06.057.103a.43.43 0 0 1 .02.134C.45.664.425.696.375.696z"/></symbol><symbol id="az"><path d="m.32 0 .07.328c.005.03.008.05.008.064 0 .043-.021.064-.063.064a.11.11 0 0 1-.07-.028.251.251 0 0 1-.06-.08.45.45 0 0 1-.042-.119L.115 0H0l.115.54h.09l-.01-.1h.004a.29.29 0 0 0 .084.083C.31.541.343.55.376.55.42.55.453.537.477.513.501.488.513.453.513.407A.461.461 0 0 0 .502.32L.435 0H.32z"/></symbol><symbol id="aA"><path d="M.375.176c0-.057-.02-.1-.058-.13A.253.253 0 0 0 .157 0 .344.344 0 0 0 0 .033v.099C.05.102.1.088.152.088c.032 0 .057.006.077.02.02.012.03.03.03.053C.258.177.252.19.24.203a.314.314 0 0 1-.069.048.263.263 0 0 0-.086.066.133.133 0 0 0-.025.08c0 .051.017.091.052.12A.215.215 0 0 0 .254.56a.34.34 0 0 0 .17-.041L.385.433a.273.273 0 0 1-.13.037.097.097 0 0 1-.058-.016.053.053 0 0 1-.022-.045c0-.015.006-.028.016-.04A.285.285 0 0 1 .258.327a.383.383 0 0 0 .073-.05.13.13 0 0 0 .044-.1z"/></symbol><symbol id="aB"><path d="M.365.352a.125.125 0 0 1-.024.081.083.083 0 0 1-.068.03A.114.114 0 0 1 .19.428.232.232 0 0 1 .136.333a.407.407 0 0 1-.02-.127C.116.169.124.142.14.123c.016-.02.04-.03.072-.03.03 0 .056.012.079.034A.218.218 0 0 1 .346.22c.013.04.02.084.02.132M.48.347a.442.442 0 0 0-.036-.18.289.289 0 0 0-.098-.124A.245.245 0 0 0 .204 0a.2.2 0 0 0-.149.056A.208.208 0 0 0 0 .208c0 .065.012.124.035.178a.294.294 0 0 0 .098.126c.042.03.09.046.145.046A.195.195 0 0 0 .428.5.215.215 0 0 0 .48.347z"/></symbol><use xlink:href="#ap" transform="matrix(8.8506 0 0 -8.8506 234.403 28.395)"/><use xlink:href="#ak" transform="matrix(8.8506 0 0 -8.8506 239.653 28.309)"/><use xlink:href="#ap" transform="matrix(8.8506 0 0 -8.8506 246.208 28.395)"/><use xlink:href="#aq" transform="matrix(8.8506 0 0 -8.8506 251.138 28.309)"/><use xlink:href="#as" transform="matrix(8.8506 0 0 -8.8506 254.969 28.395)"/><use xlink:href="#au" transform="matrix(8.8506 0 0 -8.8506 259.2 28.309)"/><use xlink:href="#av" transform="matrix(8.8506 0 0 -8.8506 261.668 28.395)"/><use xlink:href="#am" transform="matrix(8.8506 0 0 -8.8506 266.472 28.395)"/><use xlink:href="#ap" transform="matrix(8.8506 0 0 -8.8506 269.737 28.395)"/><use xlink:href="#am" transform="matrix(8.8506 0 0 -8.8506 274.86 28.395)"/><use xlink:href="#as" transform="matrix(8.8506 0 0 -8.8506 278.125 28.395)"/><use xlink:href="#au" transform="matrix(8.8506 0 0 -8.8506 282.356 28.309)"/><use xlink:href="#aw" transform="matrix(8.8506 0 0 -8.8506 284.959 28.309)"/><use xlink:href="#ax" transform="matrix(8.8506 0 0 -8.8506 288.921 28.309)"/><use xlink:href="#ay" transform="matrix(8.8506 0 0 -8.8506 293.515 30.435)"/><use xlink:href="#ap" transform="matrix(8.8506 0 0 -8.8506 299.354 28.395)"/><use xlink:href="#az" transform="matrix(8.8506 0 0 -8.8506 304.283 28.309)"/><use xlink:href="#aA" transform="matrix(8.8506 0 0 -8.8506 309.361 28.395)"/><use xlink:href="#al" transform="matrix(8.8506 0 0 -8.8506 313.495 28.309)"/><use xlink:href="#aB" transform="matrix(8.8506 0 0 -8.8506 316.122 28.387)"/><use xlink:href="#az" transform="matrix(8.8506 0 0 -8.8506 320.99 28.309)"/><path d="M470.755 60.83h5.9v.737h-5.9zm8.113 0h5.9v.737h-5.9zm8.114 0h4.317v.737h-4.317zm2.29-1.241 2.759 1.61-2.76 1.608a.369.369 0 0 1-.37-.637l2.212-1.29v.637l-2.213-1.291a.369.369 0 1 1 .372-.637zM470.755 71.501h5.9v.738h-5.9zm8.113 0h5.9v.738h-5.9zm8.114 0h4.317v.738h-4.317zm2.29-1.24 2.759 1.609-2.76 1.61a.369.369 0 0 1-.37-.638l2.212-1.29v.637l-2.213-1.291a.369.369 0 1 1 .372-.637zM470.755 82.063h5.9v.738h-5.9zm8.113 0h5.9v.738h-5.9zm8.114 0h4.317v.738h-4.317zm2.29-1.24 2.759 1.61-2.76 1.608a.369.369 0 0 1-.37-.637l2.212-1.29v.637L488.9 81.46a.369.369 0 1 1 .372-.637zM470.755 92.606h5.9v.737h-5.9zm8.113 0h5.9v.737h-5.9zm8.114 0h4.317v.737h-4.317zm2.29-1.24 2.759 1.608-2.76 1.61a.369.369 0 0 1-.37-.637l2.212-1.291v.637l-2.213-1.29a.369.369 0 1 1 .372-.638zM4.698 60.83h5.9v.737h-5.9zm8.113 0h5.9v.737h-5.9zm8.113 0h4.317v.737h-4.317zm2.29-1.241 2.759 1.61-2.759 1.608a.369.369 0 0 1-.371-.637l2.212-1.29v.637l-2.212-1.291a.369.369 0 0 1 .371-.637zM4.698 71.501h5.9v.738h-5.9zm8.113 0h5.9v.738h-5.9zm8.113 0h4.317v.738h-4.317zm2.29-1.24 2.759 1.609-2.759 1.61a.369.369 0 1 1-.371-.638l2.212-1.29v.637l-2.212-1.291a.369.369 0 0 1 .371-.637zM4.698 82.063h5.9v.738h-5.9zm8.113 0h5.9v.738h-5.9zm8.113 0h4.317v.738h-4.317zm2.29-1.24 2.759 1.61-2.759 1.608a.369.369 0 1 1-.371-.637l2.212-1.29v.637l-2.212-1.291a.369.369 0 0 1 .371-.637zM4.698 92.606h5.9v.737h-5.9zm8.113 0h5.9v.737h-5.9zm8.113 0h4.317v.737h-4.317zm2.29-1.24 2.759 1.608-2.759 1.61a.369.369 0 0 1-.371-.637l2.212-1.291v.637l-2.212-1.29a.369.369 0 0 1 .371-.638z" fill="#c55a11"/><path d="M253.669 56.177V98.66h-10.62V56.177z" fill="#e2f0d9"/><path stroke-width="1.143" stroke-miterlimit="8" fill="none" stroke="#548235" d="M253.669 56.177V98.66h-10.62V56.177z"/></g></g></svg>